<svg width="159" height="25" viewBox="0 0 159 25" fill="none" xmlns="http://www.w3.org/2000/svg">
<rect x="158.472" y="23.603" width="129" height="23" transform="rotate(-180 158.472 23.603)" stroke="black"/>
<line x1="30.9719" y1="23.603" x2="9.97192" y2="23.603" stroke="black"/>
<line x1="30.9719" y1="0.603027" x2="9.97192" y2="0.603027" stroke="black"/>
<line x1="10.5235" y1="23.5609" x2="0.403282" y2="11.5783" stroke="black"/>
<line x1="10.5767" y1="0.325057" x2="0.380003" y2="12.2427" stroke="black"/>
<path d="M71.8807 16V8.72727H76.2415V9.50852H72.7614V11.9659H75.9148V12.7472H72.7614V16H71.8807ZM77.6362 16V10.5455H78.4743V16H77.6362ZM78.0623 9.63636C77.899 9.63636 77.7581 9.58073 77.6397 9.46946C77.5237 9.35819 77.4657 9.22443 77.4657 9.06818C77.4657 8.91193 77.5237 8.77817 77.6397 8.6669C77.7581 8.55563 77.899 8.5 78.0623 8.5C78.2257 8.5 78.3654 8.55563 78.4814 8.6669C78.5997 8.77817 78.6589 8.91193 78.6589 9.06818C78.6589 9.22443 78.5997 9.35819 78.4814 9.46946C78.3654 9.58073 78.2257 9.63636 78.0623 9.63636ZM80.8473 8.72727V16H80.0092V8.72727H80.8473ZM84.7544 10.5455V11.2557H81.9277V10.5455H84.7544ZM82.7516 9.23864H83.5897V14.4375C83.5897 14.6742 83.624 14.8518 83.6926 14.9702C83.7637 15.0862 83.8536 15.1643 83.9625 15.2045C84.0738 15.2424 84.191 15.2614 84.3141 15.2614C84.4064 15.2614 84.4822 15.2566 84.5414 15.2472C84.6006 15.2353 84.6479 15.2259 84.6834 15.2188L84.8539 15.9716C84.7971 15.9929 84.7177 16.0142 84.6159 16.0355C84.5141 16.0592 84.3851 16.071 84.2289 16.071C83.9921 16.071 83.7601 16.0201 83.5328 15.9183C83.3079 15.8165 83.1209 15.6615 82.9718 15.4531C82.825 15.2448 82.7516 14.982 82.7516 14.6648V9.23864ZM86.0151 16V10.5455H86.8248V11.3693H86.8816C86.981 11.0994 87.1609 10.8804 87.4213 10.7124C87.6818 10.5443 87.9753 10.4602 88.302 10.4602C88.3636 10.4602 88.4405 10.4614 88.5328 10.4638C88.6252 10.4661 88.695 10.4697 88.7424 10.4744V11.3267C88.714 11.3196 88.6489 11.3089 88.5471 11.2947C88.4476 11.2782 88.3423 11.2699 88.231 11.2699C87.9659 11.2699 87.7291 11.3255 87.5208 11.4368C87.3148 11.5457 87.1515 11.6972 87.0307 11.8913C86.9123 12.0831 86.8532 12.3021 86.8532 12.5483V16H86.0151ZM91.3409 16.1278C90.9953 16.1278 90.6816 16.0627 90.3999 15.9325C90.1181 15.8 89.8944 15.6094 89.7287 15.3608C89.563 15.1098 89.4801 14.8068 89.4801 14.4517C89.4801 14.1392 89.5417 13.8859 89.6648 13.6918C89.7879 13.4953 89.9524 13.3414 90.1584 13.2301C90.3643 13.1188 90.5916 13.036 90.8402 12.9815C91.0911 12.9247 91.3433 12.8797 91.5966 12.8466C91.928 12.804 92.1967 12.772 92.4027 12.7507C92.611 12.727 92.7625 12.688 92.8572 12.6335C92.9543 12.5791 93.0028 12.4844 93.0028 12.3494V12.321C93.0028 11.9706 92.907 11.6984 92.7152 11.5043C92.5258 11.3101 92.2382 11.2131 91.8523 11.2131C91.4522 11.2131 91.1385 11.3007 90.9112 11.4759C90.6839 11.651 90.5241 11.8381 90.4318 12.0369L89.6364 11.7528C89.7784 11.4214 89.9678 11.1634 90.2045 10.9787C90.4437 10.7917 90.7041 10.6615 90.9858 10.5881C91.2699 10.5123 91.5492 10.4744 91.8239 10.4744C91.9991 10.4744 92.2003 10.4957 92.4276 10.5384C92.6572 10.5786 92.8786 10.6626 93.0916 10.7905C93.3071 10.9183 93.4858 11.1113 93.6278 11.3693C93.7699 11.6274 93.8409 11.973 93.8409 12.4062V16H93.0028V15.2614H92.9602C92.9034 15.3797 92.8087 15.5064 92.6761 15.6413C92.5436 15.7763 92.3672 15.8911 92.147 15.9858C91.9268 16.0805 91.6581 16.1278 91.3409 16.1278ZM91.4688 15.375C91.8002 15.375 92.0795 15.3099 92.3068 15.1797C92.5365 15.0495 92.7093 14.8814 92.8253 14.6754C92.9437 14.4695 93.0028 14.2528 93.0028 14.0256V13.2585C92.9673 13.3011 92.8892 13.3402 92.7685 13.3757C92.6501 13.4089 92.5128 13.4384 92.3565 13.4645C92.2027 13.4882 92.0523 13.5095 91.9055 13.5284C91.7611 13.545 91.6439 13.5592 91.554 13.571C91.3362 13.5994 91.1326 13.6456 90.9432 13.7095C90.7562 13.7711 90.6046 13.8646 90.4886 13.9901C90.375 14.1132 90.3182 14.2812 90.3182 14.4943C90.3182 14.7855 90.4259 15.0057 90.6413 15.1548C90.8591 15.3016 91.1349 15.375 91.4688 15.375ZM97.7427 10.5455V11.2557H94.916V10.5455H97.7427ZM95.7399 9.23864H96.5779V14.4375C96.5779 14.6742 96.6123 14.8518 96.6809 14.9702C96.752 15.0862 96.8419 15.1643 96.9508 15.2045C97.0621 15.2424 97.1793 15.2614 97.3024 15.2614C97.3947 15.2614 97.4705 15.2566 97.5297 15.2472C97.5888 15.2353 97.6362 15.2259 97.6717 15.2188L97.8422 15.9716C97.7853 15.9929 97.706 16.0142 97.6042 16.0355C97.5024 16.0592 97.3734 16.071 97.2172 16.071C96.9804 16.071 96.7484 16.0201 96.5211 15.9183C96.2962 15.8165 96.1092 15.6615 95.96 15.4531C95.8133 15.2448 95.7399 14.982 95.7399 14.6648V9.23864ZM99.0034 16V10.5455H99.8414V16H99.0034ZM99.4295 9.63636C99.2662 9.63636 99.1253 9.58073 99.0069 9.46946C98.8909 9.35819 98.8329 9.22443 98.8329 9.06818C98.8329 8.91193 98.8909 8.77817 99.0069 8.6669C99.1253 8.55563 99.2662 8.5 99.4295 8.5C99.5929 8.5 99.7325 8.55563 99.8485 8.6669C99.9669 8.77817 100.026 8.91193 100.026 9.06818C100.026 9.22443 99.9669 9.35819 99.8485 9.46946C99.7325 9.58073 99.5929 9.63636 99.4295 9.63636ZM103.592 16.1136C103.1 16.1136 102.668 15.9964 102.296 15.7621C101.927 15.5277 101.638 15.1998 101.43 14.7784C101.224 14.357 101.121 13.8646 101.121 13.3011C101.121 12.733 101.224 12.237 101.43 11.8132C101.638 11.3894 101.927 11.0604 102.296 10.826C102.668 10.5916 103.1 10.4744 103.592 10.4744C104.085 10.4744 104.516 10.5916 104.885 10.826C105.257 11.0604 105.545 11.3894 105.751 11.8132C105.96 12.237 106.064 12.733 106.064 13.3011C106.064 13.8646 105.96 14.357 105.751 14.7784C105.545 15.1998 105.257 15.5277 104.885 15.7621C104.516 15.9964 104.085 16.1136 103.592 16.1136ZM103.592 15.3608C103.966 15.3608 104.274 15.2649 104.516 15.0732C104.757 14.8814 104.936 14.6293 105.052 14.3168C105.168 14.0043 105.226 13.6657 105.226 13.3011C105.226 12.9366 105.168 12.5968 105.052 12.282C104.936 11.9671 104.757 11.7126 104.516 11.5185C104.274 11.3243 103.966 11.2273 103.592 11.2273C103.218 11.2273 102.911 11.3243 102.669 11.5185C102.428 11.7126 102.249 11.9671 102.133 12.282C102.017 12.5968 101.959 12.9366 101.959 13.3011C101.959 13.6657 102.017 14.0043 102.133 14.3168C102.249 14.6293 102.428 14.8814 102.669 15.0732C102.911 15.2649 103.218 15.3608 103.592 15.3608ZM108.181 12.7188V16H107.343V10.5455H108.153V11.3977H108.224C108.352 11.1207 108.546 10.8982 108.806 10.7301C109.067 10.5597 109.403 10.4744 109.815 10.4744C110.184 10.4744 110.507 10.5502 110.784 10.7017C111.061 10.8509 111.277 11.0781 111.431 11.3835C111.584 11.6866 111.661 12.0701 111.661 12.5341V16H110.823V12.5909C110.823 12.1624 110.712 11.8286 110.49 11.5895C110.267 11.348 109.962 11.2273 109.573 11.2273C109.306 11.2273 109.067 11.2853 108.856 11.4013C108.648 11.5173 108.483 11.6866 108.362 11.9091C108.242 12.1316 108.181 12.4015 108.181 12.7188Z" fill="black"/>
</svg>
