<svg width="159" height="25" viewBox="0 0 159 25" fill="none" xmlns="http://www.w3.org/2000/svg">
<rect x="0.5" y="0.5" width="129" height="23" stroke="black"/>
<line x1="128" y1="0.5" x2="149" y2="0.5" stroke="black"/>
<line x1="128" y1="23.5" x2="149" y2="23.5" stroke="black"/>
<line x1="148.448" y1="0.542126" x2="158.569" y2="12.5247" stroke="black"/>
<line x1="148.395" y1="23.778" x2="158.592" y2="11.8603" stroke="black"/>
<path d="M52.8523 11C52.7741 10.7609 52.6712 10.5466 52.5433 10.3572C52.4179 10.1655 52.2675 10.0021 52.0923 9.86719C51.9195 9.73224 51.723 9.62926 51.5028 9.55824C51.2827 9.48722 51.0412 9.4517 50.7784 9.4517C50.3475 9.4517 49.9557 9.56297 49.603 9.78551C49.2502 10.008 48.9697 10.3359 48.7614 10.7692C48.553 11.2024 48.4489 11.7339 48.4489 12.3636C48.4489 12.9934 48.5542 13.5249 48.7649 13.9581C48.9756 14.3913 49.2609 14.7192 49.6207 14.9418C49.9806 15.1643 50.3854 15.2756 50.8352 15.2756C51.2519 15.2756 51.6188 15.1868 51.9361 15.0092C52.2557 14.8293 52.5043 14.576 52.6818 14.2493C52.8617 13.9202 52.9517 13.5331 52.9517 13.0881L53.2216 13.1449H51.0341V12.3636H53.804V13.1449C53.804 13.7438 53.6761 14.2647 53.4205 14.7074C53.1671 15.1501 52.8168 15.4934 52.3693 15.7372C51.9242 15.9787 51.4129 16.0994 50.8352 16.0994C50.1913 16.0994 49.6255 15.9479 49.1378 15.6449C48.6525 15.3419 48.2737 14.911 48.0014 14.3523C47.7315 13.7936 47.5966 13.1307 47.5966 12.3636C47.5966 11.7884 47.6735 11.2711 47.8274 10.8118C47.9837 10.3501 48.2038 9.95715 48.4879 9.63281C48.772 9.30848 49.1082 9.0599 49.4964 8.88707C49.8847 8.71425 50.312 8.62784 50.7784 8.62784C51.1619 8.62784 51.5194 8.68584 51.8509 8.80185C52.1847 8.91548 52.4818 9.07765 52.7422 9.28835C53.005 9.49669 53.224 9.74645 53.3991 10.0376C53.5743 10.3265 53.6951 10.6473 53.7614 11H52.8523ZM55.1987 16V10.5455H56.0083V11.3693H56.0652C56.1646 11.0994 56.3445 10.8804 56.6049 10.7124C56.8654 10.5443 57.1589 10.4602 57.4856 10.4602C57.5472 10.4602 57.6241 10.4614 57.7164 10.4638C57.8088 10.4661 57.8786 10.4697 57.926 10.4744V11.3267C57.8975 11.3196 57.8324 11.3089 57.7306 11.2947C57.6312 11.2782 57.5259 11.2699 57.4146 11.2699C57.1494 11.2699 56.9127 11.3255 56.7044 11.4368C56.4984 11.5457 56.335 11.6972 56.2143 11.8913C56.0959 12.0831 56.0368 12.3021 56.0368 12.5483V16H55.1987ZM61.0403 16.1136C60.5147 16.1136 60.0614 15.9976 59.6802 15.7656C59.3014 15.5312 59.0091 15.2045 58.8031 14.7855C58.5995 14.3641 58.4977 13.8741 58.4977 13.3153C58.4977 12.7566 58.5995 12.2642 58.8031 11.8381C59.0091 11.4096 59.2955 11.0758 59.6625 10.8366C60.0318 10.5952 60.4627 10.4744 60.9551 10.4744C61.2392 10.4744 61.5197 10.5218 61.7967 10.6165C62.0737 10.7112 62.3258 10.8651 62.5531 11.0781C62.7804 11.2888 62.9615 11.5682 63.0964 11.9162C63.2314 12.2642 63.2988 12.6927 63.2988 13.2017V13.5568H59.0943V12.8324H62.4466C62.4466 12.5246 62.385 12.25 62.2619 12.0085C62.1412 11.767 61.9683 11.5765 61.7434 11.4368C61.5209 11.2971 61.2581 11.2273 60.9551 11.2273C60.6213 11.2273 60.3324 11.3101 60.0886 11.4759C59.8471 11.6392 59.6613 11.8523 59.5311 12.1151C59.4009 12.3778 59.3358 12.6596 59.3358 12.9602V13.4432C59.3358 13.8551 59.4068 14.2043 59.5488 14.4908C59.6932 14.7749 59.8933 14.9915 60.149 15.1406C60.4047 15.2874 60.7018 15.3608 61.0403 15.3608C61.2605 15.3608 61.4593 15.33 61.6369 15.2685C61.8168 15.2045 61.9719 15.1098 62.1021 14.9844C62.2323 14.8565 62.3329 14.6979 62.4039 14.5085L63.2136 14.7358C63.1284 15.0104 62.9851 15.2519 62.7839 15.4602C62.5827 15.6662 62.3341 15.8272 62.0382 15.9432C61.7422 16.0568 61.4096 16.1136 61.0403 16.1136ZM66.8606 16.1136C66.335 16.1136 65.8817 15.9976 65.5005 15.7656C65.1217 15.5312 64.8294 15.2045 64.6234 14.7855C64.4198 14.3641 64.318 13.8741 64.318 13.3153C64.318 12.7566 64.4198 12.2642 64.6234 11.8381C64.8294 11.4096 65.1158 11.0758 65.4828 10.8366C65.8521 10.5952 66.283 10.4744 66.7754 10.4744C67.0595 10.4744 67.34 10.5218 67.617 10.6165C67.894 10.7112 68.1461 10.8651 68.3734 11.0781C68.6007 11.2888 68.7818 11.5682 68.9167 11.9162C69.0517 12.2642 69.1191 12.6927 69.1191 13.2017V13.5568H64.9146V12.8324H68.2669C68.2669 12.5246 68.2053 12.25 68.0822 12.0085C67.9615 11.767 67.7886 11.5765 67.5637 11.4368C67.3412 11.2971 67.0784 11.2273 66.7754 11.2273C66.4416 11.2273 66.1528 11.3101 65.9089 11.4759C65.6674 11.6392 65.4816 11.8523 65.3514 12.1151C65.2212 12.3778 65.1561 12.6596 65.1561 12.9602V13.4432C65.1561 13.8551 65.2271 14.2043 65.3691 14.4908C65.5136 14.7749 65.7136 14.9915 65.9693 15.1406C66.225 15.2874 66.5221 15.3608 66.8606 15.3608C67.0808 15.3608 67.2797 15.33 67.4572 15.2685C67.6371 15.2045 67.7922 15.1098 67.9224 14.9844C68.0526 14.8565 68.1532 14.6979 68.2243 14.5085L69.0339 14.7358C68.9487 15.0104 68.8055 15.2519 68.6042 15.4602C68.403 15.6662 68.1544 15.8272 67.8585 15.9432C67.5626 16.0568 67.2299 16.1136 66.8606 16.1136ZM71.2321 12.7188V16H70.394V10.5455H71.2037V11.3977H71.2747C71.4025 11.1207 71.5967 10.8982 71.8571 10.7301C72.1175 10.5597 72.4537 10.4744 72.8656 10.4744C73.2349 10.4744 73.5581 10.5502 73.835 10.7017C74.112 10.8509 74.3275 11.0781 74.4814 11.3835C74.6352 11.6866 74.7122 12.0701 74.7122 12.5341V16H73.8741V12.5909C73.8741 12.1624 73.7628 11.8286 73.5403 11.5895C73.3178 11.348 73.0124 11.2273 72.6241 11.2273C72.3566 11.2273 72.1175 11.2853 71.9068 11.4013C71.6984 11.5173 71.5339 11.6866 71.4132 11.9091C71.2924 12.1316 71.2321 12.4015 71.2321 12.7188ZM79.1697 16V8.72727H81.7124C82.219 8.72727 82.6368 8.81487 82.9659 8.99006C83.295 9.16288 83.54 9.39607 83.701 9.68963C83.862 9.98082 83.9425 10.304 83.9425 10.6591C83.9425 10.9716 83.8868 11.2296 83.7756 11.4332C83.6667 11.6368 83.5223 11.7978 83.3423 11.9162C83.1648 12.0346 82.9718 12.1222 82.7635 12.179V12.25C82.986 12.2642 83.2098 12.3423 83.4347 12.4844C83.6596 12.6264 83.8478 12.83 83.9993 13.0952C84.1508 13.3603 84.2266 13.6847 84.2266 14.0682C84.2266 14.4328 84.1437 14.7607 83.978 15.0518C83.8123 15.343 83.5507 15.5739 83.1932 15.7443C82.8357 15.9148 82.3705 16 81.7976 16H79.1697ZM80.0504 15.2188H81.7976C82.3729 15.2188 82.7813 15.1075 83.0227 14.8849C83.2666 14.66 83.3885 14.3878 83.3885 14.0682C83.3885 13.822 83.3258 13.5947 83.2003 13.3864C83.0748 13.1757 82.8961 13.0076 82.6641 12.8821C82.4321 12.7543 82.1574 12.6903 81.8402 12.6903H80.0504V15.2188ZM80.0504 11.9233H81.6839C81.9491 11.9233 82.1882 11.8712 82.4013 11.767C82.6167 11.6629 82.7872 11.5161 82.9126 11.3267C83.0405 11.1373 83.1044 10.9148 83.1044 10.6591C83.1044 10.3395 82.9931 10.0684 82.7706 9.84588C82.5481 9.62098 82.1953 9.50852 81.7124 9.50852H80.0504V11.9233ZM87.8469 16.1136C87.3214 16.1136 86.868 15.9976 86.4869 15.7656C86.1081 15.5312 85.8157 15.2045 85.6097 14.7855C85.4061 14.3641 85.3043 13.8741 85.3043 13.3153C85.3043 12.7566 85.4061 12.2642 85.6097 11.8381C85.8157 11.4096 86.1022 11.0758 86.4691 10.8366C86.8384 10.5952 87.2693 10.4744 87.7617 10.4744C88.0458 10.4744 88.3263 10.5218 88.6033 10.6165C88.8803 10.7112 89.1325 10.8651 89.3597 11.0781C89.587 11.2888 89.7681 11.5682 89.9031 11.9162C90.038 12.2642 90.1055 12.6927 90.1055 13.2017V13.5568H85.9009V12.8324H89.2532C89.2532 12.5246 89.1916 12.25 89.0685 12.0085C88.9478 11.767 88.775 11.5765 88.5501 11.4368C88.3275 11.2971 88.0647 11.2273 87.7617 11.2273C87.4279 11.2273 87.1391 11.3101 86.8952 11.4759C86.6538 11.6392 86.4679 11.8523 86.3377 12.1151C86.2075 12.3778 86.1424 12.6596 86.1424 12.9602V13.4432C86.1424 13.8551 86.2134 14.2043 86.3555 14.4908C86.4999 14.7749 86.6999 14.9915 86.9556 15.1406C87.2113 15.2874 87.5084 15.3608 87.8469 15.3608C88.0671 15.3608 88.266 15.33 88.4435 15.2685C88.6235 15.2045 88.7785 15.1098 88.9087 14.9844C89.0389 14.8565 89.1396 14.6979 89.2106 14.5085L90.0202 14.7358C89.935 15.0104 89.7918 15.2519 89.5906 15.4602C89.3893 15.6662 89.1407 15.8272 88.8448 15.9432C88.5489 16.0568 88.2163 16.1136 87.8469 16.1136ZM93.6673 16.1136C93.1417 16.1136 92.6883 15.9976 92.3072 15.7656C91.9284 15.5312 91.636 15.2045 91.43 14.7855C91.2264 14.3641 91.1246 13.8741 91.1246 13.3153C91.1246 12.7566 91.2264 12.2642 91.43 11.8381C91.636 11.4096 91.9225 11.0758 92.2894 10.8366C92.6587 10.5952 93.0896 10.4744 93.582 10.4744C93.8661 10.4744 94.1467 10.5218 94.4237 10.6165C94.7006 10.7112 94.9528 10.8651 95.18 11.0781C95.4073 11.2888 95.5884 11.5682 95.7234 11.9162C95.8583 12.2642 95.9258 12.6927 95.9258 13.2017V13.5568H91.7212V12.8324H95.0735C95.0735 12.5246 95.012 12.25 94.8888 12.0085C94.7681 11.767 94.5953 11.5765 94.3704 11.4368C94.1478 11.2971 93.8851 11.2273 93.582 11.2273C93.2482 11.2273 92.9594 11.3101 92.7156 11.4759C92.4741 11.6392 92.2882 11.8523 92.158 12.1151C92.0278 12.3778 91.9627 12.6596 91.9627 12.9602V13.4432C91.9627 13.8551 92.0337 14.2043 92.1758 14.4908C92.3202 14.7749 92.5202 14.9915 92.7759 15.1406C93.0316 15.2874 93.3287 15.3608 93.6673 15.3608C93.8874 15.3608 94.0863 15.33 94.2638 15.2685C94.4438 15.2045 94.5988 15.1098 94.729 14.9844C94.8593 14.8565 94.9599 14.6979 95.0309 14.5085L95.8406 14.7358C95.7553 15.0104 95.6121 15.2519 95.4109 15.4602C95.2096 15.6662 94.9611 15.8272 94.6651 15.9432C94.3692 16.0568 94.0366 16.1136 93.6673 16.1136ZM97.2006 16V10.5455H98.0103V11.3693H98.0671C98.1665 11.0994 98.3465 10.8804 98.6069 10.7124C98.8673 10.5443 99.1609 10.4602 99.4876 10.4602C99.5491 10.4602 99.6261 10.4614 99.7184 10.4638C99.8107 10.4661 99.8806 10.4697 99.9279 10.4744V11.3267C99.8995 11.3196 99.8344 11.3089 99.7326 11.2947C99.6332 11.2782 99.5278 11.2699 99.4165 11.2699C99.1514 11.2699 98.9147 11.3255 98.7063 11.4368C98.5004 11.5457 98.337 11.6972 98.2163 11.8913C98.0979 12.0831 98.0387 12.3021 98.0387 12.5483V16H97.2006Z" fill="black"/>
</svg>
