<svg width="48" height="45" viewBox="0 0 48 45" fill="none" xmlns="http://www.w3.org/2000/svg">
<path fill-rule="evenodd" clip-rule="evenodd" d="M18.744 5.36193C14.8464 12.0309 14.7028 12.4039 16.0522 12.4039C16.5489 12.4039 18.1725 10.3199 19.6616 7.77293L22.3684 3.14093L25.2437 7.77293C29.3737 14.4249 30.8667 13.4959 27.0409 6.65393C25.2726 3.49093 23.4914 0.522929 23.0824 0.0579291C22.6735 -0.407071 20.7207 1.97893 18.744 5.36193ZM11.1822 20.1539C11.1941 20.5669 12.1227 22.0289 13.2437 23.4039C14.986 25.5389 15.1277 25.5849 14.2191 23.7199C12.749 20.7019 12.8009 20.5909 15.8976 20.1199C18.1037 19.7849 17.9082 19.6739 14.9003 19.5539C12.8437 19.4709 11.1702 19.7409 11.1822 20.1539ZM29.3617 20.1199C31.7673 20.4859 31.9717 20.7839 31.0263 22.5559C30.4328 23.6669 30.1755 24.8039 30.4538 25.0829C30.732 25.3619 31.6775 24.1979 32.5552 22.4969L34.1499 19.4039L30.385 19.5539C27.378 19.6729 27.1715 19.7879 29.3617 20.1199ZM6.54156 28.2189C5.97507 29.1459 4.27161 32.0419 2.75565 34.6539L0 39.4039H7.5748C11.9601 39.4039 15.1496 38.9829 15.1496 38.4039C15.1496 37.8539 12.6812 37.4039 9.66423 37.4039C6.64727 37.4039 4.17886 37.2359 4.17886 37.0299C4.17886 36.8239 5.31882 34.6119 6.7111 32.1129C8.10339 29.6149 8.86735 27.3369 8.40658 27.0519C7.94681 26.7669 7.10705 27.2919 6.54156 28.2189ZM38.7487 27.0749C38.3876 27.4379 39.2134 29.6519 40.5838 31.9969C41.9541 34.3419 43.0751 36.5179 43.0751 36.8319C43.0751 37.1469 40.6067 37.4039 37.5898 37.4039C34.5728 37.4039 32.1044 37.8539 32.1044 38.4039C32.1044 38.9829 35.2939 39.4039 39.6792 39.4039H47.254L44.5113 34.6539C40.4611 27.6419 39.4757 26.3459 38.7487 27.0749ZM19.1789 32.7199C19.1569 33.1679 19.6705 34.5179 20.3208 35.7199C20.9711 36.9209 21.8168 39.4789 22.2008 41.4039L22.8989 44.9039L23.0136 41.6189C23.0765 39.8119 23.8624 37.2099 24.759 35.8379C25.6566 34.4649 26.1403 33.0909 25.8351 32.7839C25.5289 32.4779 24.6273 33.4739 23.8314 34.9969L22.3843 37.7669L20.8015 34.8349C19.9308 33.2229 19.2008 32.2709 19.1789 32.7199Z" fill="white"/>
</svg>
