<svg width="88" height="87" viewBox="0 0 88 87" fill="none" xmlns="http://www.w3.org/2000/svg">
<path d="M10.8253 35.4719L29.5753 46.2972L10.8253 57.1226L10.8253 35.4719Z" fill="black"/>
<path d="M71.361 36.5073L71.361 58.158L52.611 47.3326L71.361 36.5073Z" fill="black"/>
<path d="M31.8065 17.9847L50.5428 18.0384L41.2212 34.2914L31.8065 17.9847Z" stroke="black"/>
<path d="M50.2926 75.5078L31.5564 75.454L40.8779 59.2011L50.2926 75.5078Z" stroke="black"/>
<rect x="28.5356" y="34.7573" width="25" height="24" stroke="black"/>
<rect x="72.736" y="0.707005" width="19.772" height="19.088" transform="rotate(45.9727 72.736 0.707005)" stroke="black"/>
<rect x="72.6081" y="14.7895" width="9.73543" height="9.20855" transform="rotate(45.9727 72.6081 14.7895)" stroke="black"/>
<rect x="65.7321" y="7.47702" width="19.772" height="9.34707" transform="rotate(45.9727 65.7321 7.47702)" stroke="black"/>
<line x1="66.2297" y1="21.4371" x2="53.5671" y2="34.7661" stroke="black"/>
<path d="M36.5356 53.2573V40.7573L43.5356 52.7573V40.7573V39.7573V39.2573" stroke="black"/>
</svg>
