<svg width="159" height="25" viewBox="0 0 159 25" fill="none" xmlns="http://www.w3.org/2000/svg">
<rect x="0.5" y="0.5" width="129" height="23" stroke="black"/>
<line x1="128" y1="0.5" x2="149" y2="0.5" stroke="black"/>
<line x1="128" y1="23.5" x2="149" y2="23.5" stroke="black"/>
<line x1="148.448" y1="0.542126" x2="158.569" y2="12.5247" stroke="black"/>
<line x1="148.395" y1="23.778" x2="158.592" y2="11.8603" stroke="black"/>
<path d="M59.2017 16L57.2131 8.72727H58.108L59.6278 14.6506H59.6989L61.2472 8.72727H62.2415L63.7898 14.6506H63.8608L65.3807 8.72727H66.2756L64.2869 16H63.3778L61.7727 10.2045H61.7159L60.1108 16H59.2017ZM68.9673 16.1136C68.4749 16.1136 68.0429 15.9964 67.6712 15.7621C67.3018 15.5277 67.013 15.1998 66.8047 14.7784C66.5987 14.357 66.4957 13.8646 66.4957 13.3011C66.4957 12.733 66.5987 12.237 66.8047 11.8132C67.013 11.3894 67.3018 11.0604 67.6712 10.826C68.0429 10.5916 68.4749 10.4744 68.9673 10.4744C69.4598 10.4744 69.8906 10.5916 70.2599 10.826C70.6316 11.0604 70.9205 11.3894 71.1264 11.8132C71.3348 12.237 71.4389 12.733 71.4389 13.3011C71.4389 13.8646 71.3348 14.357 71.1264 14.7784C70.9205 15.1998 70.6316 15.5277 70.2599 15.7621C69.8906 15.9964 69.4598 16.1136 68.9673 16.1136ZM68.9673 15.3608C69.3414 15.3608 69.6491 15.2649 69.8906 15.0732C70.1321 14.8814 70.3108 14.6293 70.4268 14.3168C70.5429 14.0043 70.6009 13.6657 70.6009 13.3011C70.6009 12.9366 70.5429 12.5968 70.4268 12.282C70.3108 11.9671 70.1321 11.7126 69.8906 11.5185C69.6491 11.3243 69.3414 11.2273 68.9673 11.2273C68.5933 11.2273 68.2855 11.3243 68.044 11.5185C67.8026 11.7126 67.6238 11.9671 67.5078 12.282C67.3918 12.5968 67.3338 12.9366 67.3338 13.3011C67.3338 13.6657 67.3918 14.0043 67.5078 14.3168C67.6238 14.6293 67.8026 14.8814 68.044 15.0732C68.2855 15.2649 68.5933 15.3608 68.9673 15.3608ZM72.7182 16V10.5455H73.5279V11.3693H73.5847C73.6841 11.0994 73.8641 10.8804 74.1245 10.7124C74.3849 10.5443 74.6784 10.4602 75.0051 10.4602C75.0667 10.4602 75.1436 10.4614 75.236 10.4638C75.3283 10.4661 75.3981 10.4697 75.4455 10.4744V11.3267C75.4171 11.3196 75.352 11.3089 75.2502 11.2947C75.1507 11.2782 75.0454 11.2699 74.9341 11.2699C74.669 11.2699 74.4322 11.3255 74.2239 11.4368C74.0179 11.5457 73.8546 11.6972 73.7338 11.8913C73.6155 12.0831 73.5563 12.3021 73.5563 12.5483V16H72.7182ZM79.1529 10.5455V11.2557H76.3262V10.5455H79.1529ZM77.15 9.23864H77.9881V14.4375C77.9881 14.6742 78.0224 14.8518 78.0911 14.9702C78.1621 15.0862 78.2521 15.1643 78.361 15.2045C78.4722 15.2424 78.5894 15.2614 78.7125 15.2614C78.8049 15.2614 78.8806 15.2566 78.9398 15.2472C78.999 15.2353 79.0463 15.2259 79.0819 15.2188L79.2523 15.9716C79.1955 15.9929 79.1162 16.0142 79.0144 16.0355C78.9126 16.0592 78.7836 16.071 78.6273 16.071C78.3906 16.071 78.1586 16.0201 77.9313 15.9183C77.7064 15.8165 77.5194 15.6615 77.3702 15.4531C77.2234 15.2448 77.15 14.982 77.15 14.6648V9.23864ZM81.3688 12.7188V16H80.5307V8.72727H81.3688V11.3977H81.4398C81.5676 11.116 81.7594 10.8923 82.0151 10.7266C82.2731 10.5585 82.6164 10.4744 83.0449 10.4744C83.4166 10.4744 83.7421 10.549 84.0215 10.6982C84.3008 10.8449 84.5175 11.071 84.6713 11.3764C84.8276 11.6795 84.9057 12.0653 84.9057 12.5341V16H84.0676V12.5909C84.0676 12.1577 83.9552 11.8227 83.7303 11.5859C83.5078 11.3468 83.1988 11.2273 82.8034 11.2273C82.5288 11.2273 82.2826 11.2853 82.0648 11.4013C81.8494 11.5173 81.6789 11.6866 81.5534 11.9091C81.4303 12.1316 81.3688 12.4015 81.3688 12.7188Z" fill="black"/>
</svg>
